<?xml version="1.0" standalone="no"?>
<!DOCTYPE svg PUBLIC "-//W3C//DTD SVG 20010904//EN"
 "http://www.w3.org/TR/2001/REC-SVG-20010904/DTD/svg10.dtd">
<svg version="1.0" xmlns="http://www.w3.org/2000/svg"
 width="501.000000pt" height="498.000000pt" viewBox="0 0 501.000000 498.000000"
 preserveAspectRatio="xMidYMid meet">

<g transform="translate(0.000000,498.000000) scale(0.100000,-0.100000)"
fill="#000000" stroke="none">
<path d="M446 4675 c-3 -9 -18 -15 -35 -15 -16 0 -31 -6 -35 -15 -3 -9 -18
-15 -36 -15 l-30 0 0 -2147 c0 -1182 3 -2158 6 -2171 l6 -22 2183 0 2183 0 6
23 c8 29 8 4325 0 4355 l-6 22 -2118 0 c-1873 0 -2119 -2 -2124 -15z m1884
-310 c0 -8 7 -15 15 -15 8 0 15 -7 15 -15 0 -9 7 -18 15 -21 8 -3 17 -15 21
-27 4 -12 20 -32 35 -46 16 -14 29 -29 29 -34 0 -5 7 -15 15 -23 8 -9 15 -24
15 -35 0 -10 7 -19 15 -19 8 0 15 -9 15 -19 0 -11 7 -26 15 -35 8 -8 15 -21
15 -30 0 -8 6 -21 13 -28 8 -7 17 -27 21 -43 4 -16 12 -32 17 -36 5 -3 12 -23
16 -45 3 -21 12 -43 20 -47 7 -5 13 -25 13 -48 0 -22 4 -38 9 -35 13 9 21 -20
21 -79 0 -38 4 -54 15 -59 12 -4 15 -25 15 -101 0 -78 3 -95 15 -95 13 0 15
-20 15 -120 0 -100 -2 -120 -15 -120 -12 0 -15 -18 -15 -100 0 -82 -3 -100
-15 -100 -12 0 -15 -13 -15 -60 0 -39 -5 -62 -13 -67 -8 -4 -17 -26 -20 -47
-4 -22 -11 -42 -16 -45 -5 -4 -13 -19 -16 -34 -4 -15 -11 -27 -15 -27 -5 0
-12 -14 -15 -32 -4 -17 -14 -38 -21 -46 -8 -7 -14 -19 -14 -27 0 -7 -7 -15
-15 -19 -8 -3 -15 -15 -15 -26 0 -11 -6 -19 -12 -18 -8 2 -14 -9 -16 -24 -2
-16 -9 -28 -18 -28 -8 0 -14 -7 -14 -15 0 -8 -7 -15 -15 -15 -8 0 -15 -5 -15
-11 0 -14 -136 -149 -150 -149 -6 0 -10 -7 -10 -15 0 -8 -7 -15 -15 -15 -8 0
-15 -7 -15 -15 0 -8 -7 -15 -15 -15 -9 0 -18 -7 -21 -15 -4 -8 -12 -15 -20
-15 -8 0 -22 -9 -31 -20 -10 -11 -23 -20 -30 -20 -7 0 -13 -4 -13 -9 0 -5 -13
-12 -29 -16 -16 -3 -32 -13 -35 -21 -3 -8 -17 -14 -31 -14 -16 0 -25 -6 -25
-15 0 -10 -10 -15 -30 -15 -19 0 -30 -5 -30 -14 0 -8 -15 -17 -34 -20 -22 -4
-36 -13 -39 -26 -7 -28 3 -60 19 -60 8 0 14 -9 14 -20 0 -11 7 -20 15 -20 8 0
15 -9 15 -19 0 -11 7 -26 15 -35 8 -8 15 -18 15 -23 0 -5 9 -16 20 -26 11 -9
20 -23 20 -31 0 -8 7 -16 15 -20 8 -3 15 -10 15 -16 0 -6 7 -18 15 -26 8 -9
15 -24 15 -35 0 -10 7 -19 15 -19 8 0 15 -9 15 -20 0 -11 6 -20 14 -20 8 0 17
-11 20 -25 4 -14 11 -25 16 -25 6 0 10 -7 10 -15 0 -9 7 -18 15 -21 8 -4 15
-12 15 -20 0 -8 9 -22 20 -31 11 -10 20 -23 20 -30 0 -7 4 -13 9 -13 5 0 12
-14 16 -30 4 -17 13 -30 21 -30 8 0 14 -7 14 -15 0 -8 5 -15 10 -15 6 0 15
-10 21 -22 21 -47 40 -78 48 -78 5 0 12 -12 15 -26 4 -15 20 -38 37 -53 16
-14 29 -29 29 -34 0 -5 7 -15 15 -23 8 -9 15 -24 15 -35 0 -10 7 -19 15 -19 8
0 15 -7 15 -15 0 -8 7 -15 15 -15 10 0 15 -10 15 -30 0 -20 5 -30 15 -30 8 0
15 -7 15 -15 0 -9 7 -18 15 -21 8 -4 15 -12 15 -20 0 -8 9 -22 20 -31 11 -10
20 -23 20 -30 0 -7 4 -13 9 -13 5 0 12 -13 16 -30 4 -16 13 -30 21 -30 8 0 14
-9 14 -20 0 -11 4 -20 10 -20 5 0 12 -11 16 -25 3 -14 12 -25 20 -25 8 0 14
-7 14 -15 0 -7 6 -18 14 -22 8 -4 18 -20 21 -35 l7 -28 -196 0 c-161 0 -196 2
-196 14 0 8 -7 17 -16 20 -8 3 -13 10 -9 15 3 5 1 12 -5 16 -6 4 -8 11 -5 16
4 5 -1 9 -9 9 -9 0 -16 9 -16 20 0 11 -5 19 -12 17 -6 -1 -14 7 -16 18 -2 11
-9 25 -14 30 -8 7 -8 6 -3 -4 5 -9 4 -12 -3 -7 -7 4 -12 16 -12 26 0 10 -6 23
-13 27 -6 4 -18 20 -26 35 -8 15 -21 36 -30 45 -9 10 -23 31 -31 47 -30 60
-35 66 -47 66 -7 0 -13 11 -13 24 0 14 -5 28 -12 32 -7 5 -8 3 -3 -6 5 -9 4
-11 -3 -6 -7 4 -12 16 -12 27 0 10 -7 19 -15 19 -8 0 -15 9 -15 20 0 11 -6 20
-14 20 -8 0 -17 12 -21 27 -3 15 -17 37 -30 49 -13 12 -27 34 -30 47 -4 14
-13 28 -21 31 -8 3 -14 10 -14 16 0 6 -7 18 -15 26 -8 9 -15 24 -15 35 0 12
-4 17 -11 14 -6 -4 -13 2 -16 14 -3 12 -11 21 -18 21 -8 0 -16 14 -20 30 -4
17 -11 30 -16 30 -5 0 -9 7 -9 15 0 9 -7 18 -15 21 -8 4 -15 12 -15 20 0 8 -9
22 -20 31 -11 10 -20 21 -20 26 0 5 -7 15 -15 23 -8 9 -15 24 -15 35 0 10 -7
19 -15 19 -8 0 -15 9 -15 20 0 11 -6 20 -14 20 -8 0 -17 11 -20 25 -4 14 -11
25 -16 25 -6 0 -10 7 -10 15 0 9 -6 18 -14 21 -8 3 -18 19 -21 35 -4 16 -13
29 -21 29 -8 0 -14 9 -14 20 0 11 -4 20 -10 20 -5 0 -12 11 -16 24 -3 14 -12
27 -20 30 -8 3 -14 12 -14 21 0 8 -6 15 -14 15 -8 0 -17 11 -20 25 -4 14 -11
25 -16 25 -6 0 -10 9 -10 20 0 11 -6 20 -14 20 -8 0 -17 13 -21 30 -4 17 -11
30 -16 30 -5 0 -9 6 -9 14 0 16 21 26 55 26 13 0 25 4 27 10 2 5 25 13 53 17
27 3 56 12 63 20 7 7 29 13 48 13 24 0 34 5 34 15 0 8 3 14 8 14 31 -5 62 3
62 16 0 10 10 15 30 15 20 0 30 5 30 15 0 9 9 15 25 15 14 0 28 6 31 14 3 8
18 18 34 21 16 3 31 13 34 21 3 8 12 14 21 14 8 0 15 4 15 10 0 5 11 12 25 16
14 3 25 12 25 20 0 8 7 14 15 14 8 0 15 7 15 15 0 8 9 15 20 15 11 0 20 6 20
14 0 8 7 16 15 20 8 3 15 12 15 21 0 8 7 15 15 15 8 0 15 7 15 15 0 8 6 15 14
15 8 0 17 11 20 25 4 14 11 25 16 25 6 0 10 7 10 15 0 9 6 18 14 21 8 3 17 17
21 31 3 14 13 32 20 40 8 8 15 23 15 33 0 10 7 20 15 24 9 3 15 18 15 36 0 20
5 30 15 30 10 0 15 11 15 35 0 22 5 35 13 35 8 0 14 15 15 38 3 47 12 75 26
84 8 5 11 98 11 308 0 277 -1 302 -17 311 -13 7 -18 23 -18 55 0 27 -6 52 -15
60 -8 9 -15 31 -15 50 0 24 -5 34 -15 34 -10 0 -15 10 -15 30 0 20 -5 30 -15
30 -10 0 -15 10 -15 30 0 17 -6 33 -14 36 -8 3 -17 16 -20 28 -3 12 -17 35
-31 50 -14 15 -28 38 -31 51 -3 14 -12 25 -20 25 -8 0 -14 7 -14 15 0 8 -7 15
-15 15 -8 0 -15 7 -15 15 0 8 -7 15 -15 15 -8 0 -15 5 -15 11 0 15 -74 89 -89
89 -6 0 -11 7 -11 15 0 8 -3 14 -7 14 -25 -4 -43 3 -43 16 0 13 31 15 215 15
184 0 215 -2 215 -15z m2080 -1875 l0 -1890 -597 1 c-329 0 -592 3 -585 6 17
7 15 23 -3 23 -8 0 -15 6 -15 14 0 8 -7 16 -15 20 -8 3 -15 14 -15 25 0 10 -7
21 -15 25 -8 3 -15 15 -15 26 0 11 -7 20 -15 20 -8 0 -15 6 -15 14 0 8 -7 16
-15 20 -8 3 -15 17 -15 31 0 15 -6 25 -14 25 -8 0 -17 13 -21 29 -3 16 -13 32
-21 35 -8 3 -14 12 -14 21 0 8 -4 15 -10 15 -5 0 -13 12 -16 26 -4 17 -9 22
-14 14 -5 -8 -10 -1 -15 19 -3 17 -13 31 -21 31 -8 0 -14 9 -14 20 0 11 -7 20
-15 20 -9 0 -15 9 -15 25 0 16 -6 25 -15 25 -8 0 -15 7 -15 15 0 9 -6 18 -14
21 -8 3 -18 19 -21 35 -4 16 -11 29 -16 29 -5 0 -9 6 -9 13 0 7 -9 20 -20 30
-11 9 -20 23 -20 31 0 8 -7 16 -15 20 -8 3 -15 12 -15 21 0 8 -7 15 -15 15 -9
0 -15 9 -15 25 0 14 -7 28 -15 31 -8 4 -15 12 -15 20 0 8 -7 14 -15 14 -8 0
-15 9 -15 19 0 11 -7 26 -15 35 -8 8 -15 18 -15 23 0 5 -9 16 -20 26 -11 9
-20 26 -20 37 0 11 -7 20 -15 20 -8 0 -15 7 -15 15 0 8 -4 15 -9 15 -5 0 -12
13 -16 30 -4 16 -13 30 -21 30 -8 0 -14 7 -14 15 0 9 -6 18 -14 21 -8 3 -17
17 -21 32 -3 14 -18 37 -32 49 -31 30 -45 103 -19 103 9 0 19 7 22 15 4 8 12
15 20 15 8 0 22 9 31 20 10 11 23 20 30 20 7 0 13 5 13 10 0 6 8 14 17 17 26
10 53 36 53 50 0 7 6 13 14 13 19 0 76 57 76 76 0 8 7 14 15 14 8 0 15 7 15
15 0 8 7 15 15 15 8 0 15 7 15 15 0 9 7 18 15 21 8 4 15 12 15 20 0 8 6 14 14
14 8 0 17 13 21 29 3 16 13 32 21 35 8 3 14 10 14 16 0 6 7 18 15 26 8 9 15
24 15 34 0 10 7 20 15 24 8 3 15 17 15 31 0 16 6 25 15 25 10 0 15 10 15 30 0
18 6 33 15 36 8 4 15 18 15 34 0 16 7 35 15 44 8 8 15 29 15 46 0 17 6 33 13
36 8 3 14 10 14 17 1 37 16 103 24 108 5 3 12 46 16 95 3 49 11 95 17 103 15
19 15 519 0 529 -6 4 -14 47 -18 97 -3 49 -11 92 -16 95 -5 3 -12 30 -16 60
-4 30 -11 58 -16 61 -5 3 -11 23 -15 45 -3 21 -10 42 -15 45 -5 3 -11 23 -15
45 -3 21 -12 43 -20 47 -7 4 -13 21 -13 37 0 20 -5 30 -15 30 -8 0 -15 9 -15
19 0 11 -7 26 -15 34 -7 8 -17 26 -21 41 -3 14 -10 26 -15 26 -5 0 -9 7 -9 15
0 9 -7 18 -15 21 -8 4 -15 12 -15 20 0 8 -9 22 -20 31 -51 44 -64 43 800 43
l820 0 0 -1890z m-3220 1781 c3 -4 46 -11 95 -15 50 -3 91 -11 93 -16 2 -5 26
-12 53 -16 27 -4 49 -10 49 -14 0 -5 14 -12 32 -15 17 -4 38 -14 46 -21 7 -8
20 -14 28 -14 8 0 14 -7 14 -15 0 -8 9 -15 20 -15 11 0 20 -7 20 -15 0 -8 7
-15 15 -15 8 0 15 -7 15 -15 0 -8 9 -15 19 -15 23 0 111 -85 111 -106 0 -8 7
-17 15 -20 8 -4 15 -12 15 -20 0 -8 7 -14 15 -14 8 0 15 -7 15 -15 0 -8 7 -15
15 -15 8 0 15 -9 15 -19 0 -11 7 -26 15 -35 8 -8 15 -22 15 -30 0 -9 6 -16 14
-16 8 0 16 -16 20 -42 4 -23 11 -45 17 -49 5 -3 12 -23 16 -45 3 -21 11 -42
17 -46 6 -4 12 -43 14 -88 2 -44 8 -80 13 -80 5 0 9 -27 9 -60 0 -33 -4 -60
-9 -60 -5 0 -11 -34 -13 -76 -2 -41 -8 -78 -14 -82 -6 -4 -14 -28 -18 -54 -4
-27 -11 -48 -16 -48 -5 0 -11 -13 -15 -30 -4 -16 -10 -30 -15 -30 -5 0 -11
-13 -15 -30 -4 -16 -10 -30 -15 -30 -5 0 -11 -13 -15 -30 -4 -16 -13 -30 -21
-30 -8 0 -14 -7 -14 -15 0 -8 -7 -15 -15 -15 -8 0 -15 -7 -15 -15 0 -8 -6 -15
-14 -15 -7 0 -16 -9 -19 -20 -3 -11 -12 -20 -21 -20 -9 0 -16 -7 -16 -15 0 -8
-7 -15 -15 -15 -8 0 -15 -7 -15 -15 0 -13 -18 -20 -43 -16 -4 1 -10 -6 -13
-14 -4 -8 -12 -15 -20 -15 -8 0 -14 -7 -14 -15 0 -8 -9 -15 -19 -15 -11 0 -26
-6 -33 -14 -8 -7 -29 -17 -46 -21 -18 -3 -32 -10 -32 -15 0 -4 -12 -11 -27
-15 -15 -3 -30 -11 -34 -16 -3 -5 -23 -12 -45 -16 -21 -3 -43 -12 -47 -20 -5
-7 -25 -13 -47 -13 -29 0 -40 -4 -40 -15 0 -12 -13 -15 -55 -15 -42 0 -55 -3
-55 -15 0 -10 -10 -15 -29 -15 -51 0 -123 -13 -111 -20 6 -4 -37 -10 -97 -14
-59 -4 -114 -8 -120 -8 -18 -2 -16 -45 2 -52 8 -3 15 -12 15 -21 0 -8 7 -15
15 -15 10 0 15 -10 15 -30 0 -20 5 -30 15 -30 8 0 15 -6 15 -13 0 -8 9 -24 20
-37 11 -13 20 -27 20 -32 0 -5 5 -14 10 -21 41 -48 50 -62 50 -74 0 -7 7 -13
15 -13 10 0 15 -10 15 -30 0 -20 5 -30 15 -30 8 0 15 -9 15 -20 0 -11 6 -20
14 -20 8 0 17 -11 20 -25 4 -14 11 -25 16 -25 6 0 10 -7 10 -15 0 -9 6 -18 14
-21 8 -3 18 -18 21 -34 3 -16 13 -31 21 -34 8 -3 14 -12 14 -21 0 -8 4 -15 10
-15 5 0 12 -11 16 -24 3 -14 12 -27 20 -30 8 -3 14 -12 14 -21 0 -8 7 -15 15
-15 8 0 15 -9 15 -19 0 -11 7 -26 15 -35 8 -8 15 -20 15 -26 0 -6 6 -13 14
-16 8 -3 17 -16 20 -30 4 -13 11 -24 16 -24 6 0 10 -7 10 -15 0 -9 6 -18 14
-21 8 -3 18 -18 21 -34 3 -16 13 -31 21 -34 8 -3 14 -12 14 -21 0 -8 4 -15 10
-15 5 0 12 -11 16 -25 3 -14 12 -25 20 -25 8 0 14 -8 14 -18 0 -17 8 -29 49
-79 6 -6 13 -23 17 -37 3 -14 10 -23 15 -20 5 3 12 -3 16 -13 4 -10 11 -21 17
-25 11 -7 12 -11 15 -43 0 -8 7 -14 13 -13 7 2 14 -7 16 -19 2 -13 10 -23 18
-23 9 0 14 -11 14 -30 0 -20 5 -30 15 -30 8 0 15 -7 15 -15 0 -9 7 -18 15 -21
8 -4 15 -12 15 -20 0 -8 9 -22 20 -31 11 -10 20 -23 20 -30 0 -7 4 -13 9 -13
5 0 12 -14 16 -30 4 -16 13 -30 21 -30 8 0 14 -9 14 -20 0 -11 4 -20 10 -20 5
0 12 -11 16 -25 3 -14 12 -25 20 -25 8 0 14 -9 14 -20 0 -11 6 -20 14 -20 8 0
17 -14 21 -30 4 -17 11 -30 16 -30 5 0 9 -7 9 -15 0 -13 -82 -15 -675 -15
l-675 0 0 1825 c0 1616 2 1825 15 1825 8 0 15 6 15 14 0 8 6 17 13 20 18 9
541 -4 547 -13z"/>
</g>
</svg>
